<?xml version="1.0" standalone="no"?>
<!DOCTYPE svg PUBLIC "-//W3C//DTD SVG 20010904//EN"
 "http://www.w3.org/TR/2001/REC-SVG-20010904/DTD/svg10.dtd">
<svg version="1.0" xmlns="http://www.w3.org/2000/svg"
 width="856.000000pt" height="856.000000pt" viewBox="0 0 856.000000 856.000000"
 preserveAspectRatio="xMidYMid meet">
<metadata>
Created by potrace 1.14, written by Peter Selinger 2001-2017
</metadata>
<g transform="translate(0.000000,856.000000) scale(0.100000,-0.100000)"
fill="#000000" stroke="none">
<path d="M4607 7694 c-1 -1 -63 -4 -137 -8 -130 -5 -188 -10 -275 -21 -22 -3
-58 -7 -80 -10 -22 -3 -51 -8 -65 -11 -14 -3 -36 -8 -50 -10 -47 -8 -215 -46
-270 -61 -78 -21 -319 -101 -355 -118 -16 -7 -54 -23 -84 -35 -93 -36 -372
-179 -402 -206 -8 -8 -20 -14 -25 -14 -5 0 -29 -14 -54 -30 -25 -17 -53 -36
-64 -43 -206 -135 -435 -331 -616 -524 -67 -73 -75 -81 -150 -173 -25 -30 -49
-60 -55 -66 -5 -7 -28 -38 -50 -69 -22 -31 -48 -66 -57 -77 -10 -11 -20 -29
-23 -39 -4 -11 -11 -19 -16 -19 -5 0 -9 -4 -9 -10 0 -5 -20 -40 -44 -77 -59
-93 -194 -343 -202 -373 -1 -7 -19 -48 -45 -105 -13 -27 -24 -54 -24 -60 -2
-11 -19 -57 -34 -90 -5 -11 -24 -67 -41 -125 -17 -58 -36 -113 -42 -123 -5
-11 -7 -21 -4 -24 2 -3 0 -16 -5 -30 -10 -26 -43 -171 -53 -228 -5 -31 -22
-134 -31 -195 -7 -42 -11 -93 -20 -230 -4 -58 -8 -107 -10 -109 -2 -1 0 -14 5
-27 5 -13 6 -24 2 -24 -9 0 0 -287 13 -395 10 -83 20 -157 30 -220 13 -81 16
-98 20 -104 2 -4 6 -24 9 -46 4 -22 16 -74 27 -115 24 -90 29 -112 32 -125 2
-5 6 -16 10 -22 5 -7 6 -13 3 -13 -3 0 2 -17 11 -37 8 -21 15 -39 14 -40 -2
-5 3 -21 14 -48 4 -11 27 -70 50 -131 24 -61 55 -134 69 -163 15 -28 23 -51
20 -51 -4 0 -2 -6 4 -12 5 -7 36 -62 67 -123 53 -101 98 -176 146 -247 11 -15
19 -30 19 -33 0 -3 4 -11 10 -18 12 -15 79 -107 100 -138 16 -23 98 -127 115
-145 5 -6 30 -35 55 -64 89 -106 359 -367 408 -394 9 -5 25 -19 36 -30 12 -12
32 -29 46 -39 14 -9 52 -37 85 -62 33 -25 70 -49 83 -55 12 -5 22 -14 22 -20
0 -5 4 -10 9 -10 5 0 57 -30 116 -66 59 -36 115 -68 124 -72 9 -3 27 -14 40
-24 13 -10 27 -15 31 -13 5 3 11 1 15 -4 7 -13 172 -91 275 -131 30 -11 64
-25 75 -29 62 -28 380 -124 450 -136 43 -7 76 -14 105 -21 14 -3 43 -8 65 -9
22 -2 40 -5 40 -6 0 -1 9 -3 20 -4 11 -2 34 -5 50 -9 33 -6 117 -15 210 -23
146 -12 532 -5 655 13 25 4 59 8 75 10 17 1 44 5 60 8 31 5 94 16 130 21 11 2
20 4 20 5 0 1 14 4 30 6 17 3 64 15 105 26 41 11 84 22 95 23 11 2 39 10 63
19 23 8 43 15 45 15 13 -1 346 123 372 139 6 4 12 7 15 7 10 2 185 88 190 94
3 4 30 19 60 34 88 44 338 207 417 271 10 8 47 39 83 68 222 181 448 421 611
648 29 41 57 78 62 81 5 3 8 8 6 10 -2 3 61 106 119 195 7 10 17 31 23 47 6
15 15 27 20 27 5 0 9 5 9 10 0 6 29 70 64 143 59 123 100 214 102 227 1 5 16
46 33 85 14 35 42 119 47 140 2 12 12 45 22 75 11 30 19 57 20 60 0 3 5 23 10
45 6 22 13 51 16 65 2 14 12 59 21 100 9 41 18 88 20 103 2 15 7 47 11 70 12
78 19 144 30 272 7 87 7 437 0 470 -2 11 -7 65 -11 120 -4 55 -9 104 -12 108
-3 4 -7 27 -9 50 -2 23 -7 53 -10 67 -3 14 -8 39 -10 56 -2 18 -15 79 -29 135
-14 57 -28 115 -31 129 -2 14 -9 36 -14 50 -5 14 -11 34 -13 45 -2 11 -7 27
-10 35 -3 8 -15 44 -28 80 -25 75 -69 187 -100 257 -36 81 -143 298 -150 303
-4 3 -19 28 -34 55 -39 71 -63 110 -125 199 -30 43 -59 86 -65 95 -5 9 -12 18
-16 21 -3 3 -18 23 -35 45 -16 22 -34 45 -40 50 -6 6 -18 21 -27 35 -22 32
-143 165 -234 255 -61 60 -101 97 -207 190 -6 6 -42 35 -81 65 -38 30 -72 57
-75 61 -13 16 -314 209 -326 209 -8 0 -14 5 -14 10 0 6 -7 10 -15 10 -8 0 -15
5 -15 11 0 5 -4 8 -9 4 -5 -3 -12 -1 -15 3 -7 11 -232 123 -316 157 -36 14
-74 30 -85 35 -70 31 -341 117 -380 121 -2 0 -19 5 -37 10 -40 12 -210 48
-258 55 -19 2 -44 7 -55 9 -11 2 -49 7 -85 11 -36 3 -81 8 -100 10 -76 8 -338
22 -343 18z"/>
</g>
</svg>
