<svg viewBox="38 0 2262 332" version="1.1" xmlns="http://www.w3.org/2000/svg" xmlns:xlink="http://www.w3.org/1999/xlink" class="svelte-1cmpfet"><title>Boekentoren</title><text text-anchor="end" x="1230px" y="173px" class="bkt svelte-1cmpfet" style="font-size:208px">Boekentoren
			</text><text text-anchor="end" x="1230px" y="287px" class="address svelte-1cmpfet" style="font-size:85px">Rozier 9, 9000 Ghent</text><rect x="1346.47" y="1.072" width="3.457" height="330.342"></rect><rect x="1900.41" y="57.872" width="8.624" height="55.981"></rect><rect x="1883.17" y="57.872" width="8.623" height="55.981"></rect><rect x="1865.92" y="57.872" width="8.624" height="55.981"></rect><rect x="1848.67" y="57.872" width="8.624" height="55.981"></rect><rect x="1917.66" y="57.872" width="8.623" height="55.981"></rect><rect x="1934.91" y="57.872" width="8.624" height="55.981"></rect><rect x="1952.15" y="57.872" width="8.624" height="55.981"></rect><rect x="1839.84" y="122.477" width="129.764" height="8.63"></rect><path d="M1960.78,49.248L1848.67,49.248L1840.05,40.625L1969.4,40.625L1960.78,49.248Z"></path><rect x="1831.22" y="139.724" width="147.01" height="8.63"></rect><path d="M1978.23,26.676L1904.73,0.644L1831.22,26.676L1831.22,35.834L1904.73,9.804L1978.23,35.834L1978.23,26.676Z"></path><path d="M1902.59,216.152L1884.01,216.152L1884.01,243.825L1875.38,243.825L1875.38,182.851L1884.01,182.851L1884.01,208.837L1902.59,208.837L1902.59,182.851L1911.22,182.851L1911.22,243.825L1902.59,243.825L1902.59,216.152Z"></path><path d="M2091.57,275.147C2095.38,275.134 2098.97,276.382 2100.62,277.679L2100.62,269.907C2098.97,268.893 2094.92,267.765 2090.82,267.765C2079.37,267.765 2073.07,274.275 2073.07,283.717C2073.07,291.591 2076.4,295.372 2081.77,300.005L2086.68,304.246C2090.73,307.637 2093.25,310.25 2093.25,315.321C2093.25,321.251 2089.33,323.6 2083.45,323.6C2078.99,323.6 2075.29,322.365 2073.16,320.892L2073.16,328.801C2075.03,329.882 2078.94,330.996 2084.22,330.982C2095.64,330.955 2101.94,324.465 2101.95,315.031C2101.96,307.163 2098.62,303.375 2093.25,298.749L2088.34,294.501C2084.28,291.024 2081.76,288.511 2081.77,283.446C2081.79,277.49 2085.68,275.161 2091.57,275.147"></path><path d="M2038.58,276.207L2038.58,297.696L2043.18,297.696C2049.93,297.696 2054.44,296.278 2054.44,286.904C2054.44,277.612 2049.93,276.207 2043.18,276.207L2038.58,276.207ZM2029.95,268.886L2044.02,268.886C2055.28,268.886 2063.34,273.114 2063.34,286.904C2063.34,296.561 2058.66,301.247 2052.75,303.409L2065.69,329.867L2055.84,329.867L2044.39,305.003L2038.58,305.003L2038.58,329.867L2029.95,329.867L2029.95,268.886Z"></path><path d="M1831.22,311.479L1831.22,268.893L1839.85,268.893L1839.85,311.857C1839.85,320.866 1842.95,323.486 1849.23,323.486C1855.52,323.486 1858.61,320.866 1858.61,311.857L1858.61,268.893L1867.24,268.893L1867.24,311.479C1867.24,325.363 1861.43,330.995 1849.23,330.995C1836.85,330.995 1831.22,325.553 1831.22,311.479"></path><path d="M1878.4,268.893L1888.35,268.893L1907.58,317.483C1906.92,312.512 1906.36,306.697 1906.36,301.254L1906.36,268.893L1914.62,268.893L1914.62,329.868L1904.67,329.868L1885.25,281.09C1886,286.06 1886.66,291.969 1886.66,297.507L1886.66,329.868L1878.4,329.868L1878.4,268.893Z"></path><rect x="1926.83" y="268.893" width="8.631" height="60.974" style="fill:#0064cc;"></rect><path d="M1943.48,268.893L1952.49,268.893L1960.18,300.6C1961.31,305.388 1962.71,313.451 1963.56,319.832C1964.4,313.451 1965.81,305.388 1967.12,300.6L1974.72,268.893L1983.44,268.893L1967.97,329.868L1958.96,329.868L1943.48,268.893Z"></path><path d="M1991.46,268.893L2019.98,268.893L2019.98,276.214L2000.09,276.214L2000.09,294.879L2016.13,294.879L2016.13,302.099L2000.09,302.099L2000.09,322.554L2019.98,322.554L2019.98,329.868L1991.46,329.868L1991.46,268.893Z"></path><rect x="2112.19" y="268.893" width="8.631" height="60.974" style="fill:#0064cc;"></rect><path d="M1829.35,213.342C1829.35,189.328 1835.72,181.723 1851.58,181.723C1856.08,181.723 1860.86,182.946 1862.93,184.168L1862.93,192.137C1860.68,190.827 1856.36,189.416 1852.23,189.416C1842.1,189.416 1838.26,193.17 1838.26,213.342C1838.26,233.318 1840.98,237.444 1849.8,237.444C1852.52,237.444 1854.77,237.073 1856.45,236.6L1856.45,216.245L1847.45,216.245L1847.45,208.932L1865.08,208.932L1865.08,241.854C1863.3,242.981 1856.17,244.953 1849.89,244.953C1833.38,244.953 1829.35,236.323 1829.35,213.342"></path><path d="M1923.43,182.851L1951.95,182.851L1951.95,190.172L1932.07,190.172L1932.07,208.837L1948.11,208.837L1948.11,216.057L1932.07,216.057L1932.07,236.512L1951.95,236.512L1951.95,243.826L1923.43,243.826L1923.43,182.851Z"></path><path d="M1961.92,182.851L1971.87,182.851L1991.1,231.44C1990.44,226.47 1989.88,220.655 1989.88,215.212L1989.88,182.851L1998.13,182.851L1998.13,243.826L1988.19,243.826L1968.77,195.047C1969.52,200.018 1970.18,205.927 1970.18,211.464L1970.18,243.826L1961.92,243.826L1961.92,182.851Z"></path><path d="M2006.03,182.851L2041.02,182.851L2041.02,190.172L2027.8,190.172L2027.8,243.826L2019.16,243.826L2019.16,190.172L2006.03,190.172L2006.03,182.851Z"></path><path d="M2184.11,304.544L2167.41,268.893L2176.89,268.893L2184.11,285.31C2185.8,289.248 2187.4,293.468 2188.43,297.223C2189.55,293.468 2191.24,289.248 2192.93,285.31L2200.15,268.893L2209.35,268.893L2192.74,304.544L2192.74,329.868L2184.11,329.868L2184.11,304.544Z"></path><path d="M2129.02,268.893L2164.01,268.893L2164.01,276.214L2150.78,276.214L2150.78,329.868L2142.15,329.868L2142.15,276.214L2129.02,276.214L2129.02,268.893Z"></path><path d="M1535.07,311.836L1508.9,311.836L1508.9,287.679C1508.94,283.466 1509.5,280.197 1510.57,277.871C1512.47,273.704 1515.98,271.618 1521.09,271.618C1527.12,271.618 1531.21,273.769 1533.34,278.069C1534.49,280.439 1535.07,283.752 1535.07,288.008L1535.07,311.836ZM1492.65,311.836L1471.01,311.836L1471.01,290.486C1471.01,285.785 1471.53,281.919 1472.55,278.888C1474.01,275.373 1477.03,273.616 1481.6,273.616C1485.73,273.616 1488.6,274.946 1490.22,277.603C1491.84,280.261 1492.65,283.72 1492.65,287.982L1492.65,311.836ZM1545.86,262.231C1543.77,259.451 1541.19,257.134 1538.13,255.28C1533.51,252.368 1528.3,250.911 1522.48,250.911C1516.85,250.911 1512.05,252.185 1508.1,254.734C1504.15,257.283 1501.27,261.063 1499.44,266.071C1497.76,262.774 1495.89,260.279 1493.85,258.586C1490.21,255.556 1485.4,254.04 1479.4,254.04C1473.59,254.04 1468.6,255.543 1464.42,258.545C1457.63,263.535 1454.15,272.014 1453.97,283.981L1453.97,331.411L1552.11,331.411L1552.11,287.189C1552.11,282.202 1551.67,277.58 1550.78,273.32C1549.89,269.061 1548.25,265.365 1545.86,262.231" class="black svelte-1cmpfet"></path><path d="M1453.97,155.394L1453.97,181.894L1494.41,219.814L1453.97,219.814L1453.97,239.989L1552.11,239.989L1552.11,219.814L1519.29,219.814L1509.27,209.937L1552.11,179.698L1552.11,153.33L1494.33,195.67L1453.97,155.394Z" class="black svelte-1cmpfet"></path><path d="M1532.3,1.073L1532.3,20.901L1572.76,20.901L1572.76,331.411L1592.6,331.411L1592.6,20.901L1633.06,20.901L1633.06,1.073L1532.3,1.073Z" class="black svelte-1cmpfet"></path><rect x="1613.22" y="40.737" width="19.834" height="290.674"></rect><path d="M1532.3,144.652L1552.14,130.131L1552.14,40.735L1532.3,40.735L1532.3,144.652Z" class="black svelte-1cmpfet"></path><rect x="1729.47" y="1.072" width="3.457" height="330.342"></rect></svg>